<svg width="50" height="44" viewBox="0 0 50 44" fill="none" xmlns="http://www.w3.org/2000/svg">
<path d="M47.3423 0H33.4273L27.8043 7.9718L24.459 15.8724L33.4273 16.8689L42.7514 15.908L49.6556 3.95031C50.6521 2.20648 49.3709 0 47.3423 0Z" fill="#0060D9"/>
<path d="M0.365059 3.98589L6.16597 13.9151C6.87774 15.1251 8.15892 15.8724 9.58246 15.8724L24.4584 15.908L33.4267 0H2.64272C0.614178 0 -0.667005 2.24206 0.365059 3.98589Z" fill="#4285F4"/>
<path d="M27.4117 42.6706C26.4152 44.4145 23.8884 44.45 22.8563 42.7062L17.091 33.0262C16.3792 31.8162 16.3437 30.2859 17.0554 29.0403L24.4934 15.8726L42.7503 15.9081L27.4117 42.6706Z" fill="#4285F4"/>
</svg>
