<svg width="93" height="94" viewBox="0 0 93 94" fill="none" xmlns="http://www.w3.org/2000/svg">
<g filter="url(#filter0_b_4059_90438)">
<rect x="0.5" y="4.5" width="89" height="89" rx="44.5" fill="#313036" fill-opacity="0.3"/>
<rect x="0.5" y="4.5" width="89" height="89" rx="44.5" fill="url(#paint0_linear_4059_90438)"/>
<rect x="1.5" y="5.5" width="87" height="87" rx="43.5" stroke="url(#paint1_linear_4059_90438)" stroke-width="2"/>
</g>
<g filter="url(#filter1_b_4059_90438)">
<ellipse cx="45.5499" cy="48.096" rx="24.1246" ry="24.1334" fill="url(#paint2_linear_4059_90438)"/>
<path d="M69.5426 48.096C69.5426 61.3517 58.8007 72.0974 45.5499 72.0974C32.2992 72.0974 21.5573 61.3517 21.5573 48.096C21.5573 34.8404 32.2992 24.0946 45.5499 24.0946C58.8007 24.0946 69.5426 34.8404 69.5426 48.096Z" stroke="url(#paint3_linear_4059_90438)" stroke-opacity="0.5" stroke-width="0.263998"/>
</g>
<g filter="url(#filter2_d_4059_90438)">
<path d="M44.633 22.5C30.2246 22.5 18.5 34.2288 18.5 48.6425C18.5 63.0561 30.2246 74.791 44.633 74.791C59.0414 74.791 70.766 63.0622 70.766 48.6485C70.766 34.2349 59.0414 22.5 44.633 22.5ZM55.8932 43.6589L42.8237 57.7347C42.2326 58.3743 41.4244 58.7001 40.6102 58.7001C39.9106 58.7001 39.217 58.4587 38.6441 57.9761L31.6057 51.9427C30.3392 50.8567 30.1944 48.9562 31.28 47.6892C32.3656 46.4222 34.2654 46.2714 35.532 47.3634L40.369 51.5083L51.4663 39.5563C52.6002 38.3375 54.506 38.2651 55.7303 39.3994C56.9546 40.5337 57.021 42.4402 55.8932 43.6589Z" fill="url(#paint4_linear_4059_90438)"/>
</g>
<defs>
<filter id="filter0_b_4059_90438" x="-3.5" y="0.5" width="97" height="97" filterUnits="userSpaceOnUse" color-interpolation-filters="sRGB">
<feFlood flood-opacity="0" result="BackgroundImageFix"/>
<feGaussianBlur in="BackgroundImageFix" stdDeviation="2"/>
<feComposite in2="SourceAlpha" operator="in" result="effect1_backgroundBlur_4059_90438"/>
<feBlend mode="normal" in="SourceGraphic" in2="effect1_backgroundBlur_4059_90438" result="shape"/>
</filter>
<filter id="filter1_b_4059_90438" x="1.62545" y="4.1628" width="87.8492" height="87.8665" filterUnits="userSpaceOnUse" color-interpolation-filters="sRGB">
<feFlood flood-opacity="0" result="BackgroundImageFix"/>
<feGaussianBlur in="BackgroundImageFix" stdDeviation="9.89992"/>
<feComposite in2="SourceAlpha" operator="in" result="effect1_backgroundBlur_4059_90438"/>
<feBlend mode="normal" in="SourceGraphic" in2="effect1_backgroundBlur_4059_90438" result="shape"/>
</filter>
<filter id="filter2_d_4059_90438" x="8.5" y="0.5" width="84.2661" height="84.291" filterUnits="userSpaceOnUse" color-interpolation-filters="sRGB">
<feFlood flood-opacity="0" result="BackgroundImageFix"/>
<feColorMatrix in="SourceAlpha" type="matrix" values="0 0 0 0 0 0 0 0 0 0 0 0 0 0 0 0 0 0 127 0" result="hardAlpha"/>
<feOffset dx="6" dy="-6"/>
<feGaussianBlur stdDeviation="8"/>
<feColorMatrix type="matrix" values="0 0 0 0 0.698039 0 0 0 0 0.968627 0 0 0 0 0.388235 0 0 0 0.2 0"/>
<feBlend mode="normal" in2="BackgroundImageFix" result="effect1_dropShadow_4059_90438"/>
<feBlend mode="normal" in="SourceGraphic" in2="effect1_dropShadow_4059_90438" result="shape"/>
</filter>
<linearGradient id="paint0_linear_4059_90438" x1="4.88115" y1="9.43986" x2="45" y2="50.78" gradientUnits="userSpaceOnUse">
<stop stop-color="#B1B1B1" stop-opacity="0.32"/>
<stop offset="1" stop-color="#363567" stop-opacity="0.2"/>
</linearGradient>
<linearGradient id="paint1_linear_4059_90438" x1="-18.2493" y1="-1.91195" x2="5.86297" y2="111.652" gradientUnits="userSpaceOnUse">
<stop stop-color="white" stop-opacity="0.2"/>
<stop offset="1" stop-color="white" stop-opacity="0"/>
</linearGradient>
<linearGradient id="paint2_linear_4059_90438" x1="66.2537" y1="32.6787" x2="6.12722" y2="24.3678" gradientUnits="userSpaceOnUse">
<stop stop-color="white"/>
<stop offset="1" stop-color="white" stop-opacity="0.61"/>
</linearGradient>
<linearGradient id="paint3_linear_4059_90438" x1="26.6228" y1="40.1538" x2="67.5931" y2="40.3799" gradientUnits="userSpaceOnUse">
<stop stop-color="white"/>
<stop offset="1" stop-color="white" stop-opacity="0"/>
</linearGradient>
<linearGradient id="paint4_linear_4059_90438" x1="70.766" y1="22.5" x2="33.8933" y2="65.6038" gradientUnits="userSpaceOnUse">
<stop stop-color="#B2F763"/>
<stop offset="1" stop-color="#26AB3F"/>
</linearGradient>
</defs>
</svg>
