<svg width="48" height="48" viewBox="0 0 48 48" fill="none" xmlns="http://www.w3.org/2000/svg">
<path d="M20.5005 45.9998C19.9335 45.9998 19.3935 45.7598 19.0135 45.3378L1.91753 26.3418C1.33753 25.6968 1.01953 24.8648 1.01953 23.9988C1.01953 23.1328 1.33853 22.3018 1.91853 21.6568L19.0135 2.66181C19.7725 1.81781 21.2285 1.81781 21.9875 2.66181L39.0845 21.6578C40.2845 22.9918 40.2845 25.0068 39.0845 26.3408L21.9875 45.3378C21.6075 45.7598 21.0675 45.9998 20.5005 45.9998Z" fill="url(#paint0_linear_586_106952)"/>
<path opacity="0.05" d="M39.9805 24.0001C39.9805 24.8401 39.6805 25.6801 39.0805 26.3401L23.6605 43.4901L23.3205 43.8601L17.2705 37.1401C16.2405 35.9901 16.2405 34.2701 17.2705 33.1201L24.6405 24.9301C25.1205 24.4001 25.1205 23.6001 24.6405 23.0701L17.2705 14.8801C16.2405 13.7301 16.2405 12.0101 17.2705 10.8601L23.3205 4.14014L23.6605 4.51014L39.0805 21.6601C39.6805 22.3201 39.9805 23.1601 39.9805 24.0001Z" fill="black"/>
<path opacity="0.05" d="M39.9791 23.9998C39.9791 24.8398 39.6791 25.6798 39.0791 26.3398L23.6591 43.4898L17.6391 36.7998C16.7791 35.8498 16.7791 34.4098 17.6391 33.4598L25.0091 25.2698C25.6591 24.5398 25.6591 23.4598 25.0091 22.7298L17.6391 14.5398C16.7791 13.5898 16.7791 12.1498 17.6391 11.1998L23.6591 4.50977L39.0791 21.6598C39.6791 22.3198 39.9791 23.1598 39.9791 23.9998Z" fill="black"/>
<path d="M27.4824 45.9998C26.9154 45.9998 26.3754 45.7598 25.9954 45.3378L18.0114 36.4668C17.3264 35.7058 17.3274 34.5518 18.0114 33.7908L25.3824 25.6018C26.2044 24.6888 26.2044 23.3118 25.3824 22.3988L18.0114 14.2098C17.3274 13.4488 17.3264 12.2948 18.0114 11.5338L25.9954 2.66279C26.7544 1.81879 28.2104 1.81879 28.9694 2.66279L46.0664 21.6588C47.2664 22.9928 47.2664 25.0068 46.0674 26.3418L28.9684 45.3378C28.5894 45.7598 28.0494 45.9998 27.4824 45.9998Z" fill="url(#paint1_linear_586_106952)"/>
<path d="M37.9906 34.3231C37.4236 34.3231 36.8836 34.0831 36.5046 33.6611L29.9166 26.3421C29.3356 25.6961 29.0166 24.8631 29.0176 23.9961C29.0176 23.1311 29.3376 22.3011 29.9166 21.6571L36.5036 14.3391C37.2616 13.4951 38.7186 13.4951 39.4766 14.3391L46.0646 21.6581C47.2646 22.9941 47.2646 25.0061 46.0656 26.3411L39.4766 33.6611C39.0986 34.0831 38.5576 34.3231 37.9906 34.3231Z" fill="url(#paint2_linear_586_106952)"/>
<defs>
<linearGradient id="paint0_linear_586_106952" x1="16.7385" y1="2.65881" x2="24.2685" y2="45.3658" gradientUnits="userSpaceOnUse">
<stop offset="0.003" stop-color="#A33094"/>
<stop offset="0.998" stop-color="#6D246B"/>
</linearGradient>
<linearGradient id="paint1_linear_586_106952" x1="27.3854" y1="2.01279" x2="34.9164" y2="44.7198" gradientUnits="userSpaceOnUse">
<stop stop-color="#E288C5"/>
<stop offset="0.998" stop-color="#D76DBB"/>
</linearGradient>
<linearGradient id="paint2_linear_586_106952" x1="36.2256" y1="13.9841" x2="39.7616" y2="34.0421" gradientUnits="userSpaceOnUse">
<stop offset="0.006" stop-color="#E9A0CB"/>
<stop offset="0.998" stop-color="#E48DC7"/>
</linearGradient>
</defs>
</svg>
